<?xml version="1.0" standalone="no"?>
<!DOCTYPE svg PUBLIC "-//W3C//DTD SVG 1.1//EN" "http://www.w3.org/Graphics/SVG/1.1/DTD/svg11.dtd" >
<svg xmlns="http://www.w3.org/2000/svg" xmlns:xlink="http://www.w3.org/1999/xlink" version="1.1">
<metadata></metadata>
<defs>
<font id="bitterbold" horiz-adv-x="1228" >
<font-face units-per-em="2048" ascent="1638" descent="-410" />
<missing-glyph horiz-adv-x="481" />
<glyph horiz-adv-x="2048" />
<glyph horiz-adv-x="2048" />
<glyph horiz-adv-x="682" />
<glyph unicode="&#xd;" />
<glyph unicode=" "  horiz-adv-x="481" />
<glyph unicode="&#x09;" horiz-adv-x="481" />
<glyph unicode="&#xa0;" horiz-adv-x="481" />
<glyph unicode="!" horiz-adv-x="696" d="M174 160q0 84 51.5 134t124.5 50q84 0 128 -48t44 -136q0 -85 -52.5 -136t-125.5 -51q-84 0 -127 48.5t-43 138.5zM186 1567h320l-37 -1032l-246 -11z" />
<glyph unicode="&#x22;" horiz-adv-x="903" d="M117 1024v578h276l-45 -578h-231zM528 1024v578h279l-47 -578h-232z" />
<glyph unicode="#" horiz-adv-x="1495" d="M123 289v211h217l35 252h-201v211h227l37 266h260l-36 -266h258l34 266h260l-34 -266h192v-211h-221l-33 -252h203v-211h-231l-37 -289h-260l36 289h-256l-38 -289h-261l39 289h-190zM600 500h258l33 252h-256z" />
<glyph unicode="$" horiz-adv-x="1130" d="M113 43v363h188l31 -154q69 -37 178 -37q98 0 163.5 37.5t65.5 107.5q0 35 -21.5 62t-57.5 46t-83 36t-99 35.5t-104 39.5t-99 53.5t-83 73t-57.5 101t-21.5 135.5q0 155 94.5 254t253.5 129v242h219v-234q78 -6 158 -24.5t120 -33.5l41 -15l-8 -336h-176l-39 151 q-86 31 -164 31q-95 0 -146.5 -35.5t-51.5 -93.5q0 -44 34.5 -76.5t89.5 -54.5t121.5 -44.5t133 -53.5t121.5 -72t89.5 -110.5t34.5 -159.5q0 -167 -97 -274t-261 -142v-289h-219v276q-84 4 -171 20.5t-132 30.5z" />
<glyph unicode="%" horiz-adv-x="1914" d="M113 1083q0 178 104 281.5t264 103.5q156 0 251 -93.5t95 -268.5q0 -177 -104.5 -283t-265.5 -106q-157 0 -250.5 91t-93.5 275zM348 1092q0 -97 27 -147t92 -50q67 0 96 50.5t29 152.5q0 96 -27.5 145t-93.5 49t-94.5 -51t-28.5 -149zM367 -16l856 1474h297l-856 -1474 h-297zM1063 338q0 178 104.5 281.5t264.5 103.5q156 0 251 -94t95 -269q0 -177 -105 -283t-266 -106q-157 0 -250.5 91.5t-93.5 275.5zM1298 346q0 -97 27 -146.5t92 -49.5q67 0 96 50t29 152q0 96 -27.5 145.5t-93.5 49.5t-94.5 -51.5t-28.5 -149.5z" />
<glyph unicode="&#x26;" horiz-adv-x="1386" d="M113 385q0 62 22.5 120t53 97t70.5 73.5t66 51t48 27.5q-1 1 -19 12t-25 16t-26.5 19t-30 23.5t-28.5 27.5t-28 34t-23 38.5t-20 44.5t-12 50t-5 58q0 191 138 291t378 100q107 0 230 -30.5t173 -55.5l-10 -323h-193q-15 55 -32 133q-70 27 -185 27q-93 0 -143.5 -47 t-50.5 -115q0 -88 68.5 -137.5t166.5 -49.5h629v-174l-143 -47v-217q0 -214 -148 -335.5t-403 -121.5q-260 0 -389 110.5t-129 299.5zM430 428q0 -97 59 -150t162 -53q108 0 171 61.5t63 174.5v188h-154q-133 0 -217 -55.5t-84 -165.5z" />
<glyph unicode="'" horiz-adv-x="491" d="M113 1024v578h276l-45 -578h-231z" />
<glyph unicode="(" horiz-adv-x="722" d="M111 573q0 283 82 515t258 489h266q-148 -225 -234 -491t-86 -508q0 -266 85.5 -551t232.5 -498h-264q-178 252 -259 494.5t-81 549.5z" />
<glyph unicode=")" horiz-adv-x="716" d="M-2 1577h266q176 -257 258 -489t82 -515q0 -308 -81 -550.5t-259 -493.5h-264q147 212 232 497.5t85 551.5q0 242 -85.5 508t-233.5 491z" />
<glyph unicode="*" horiz-adv-x="854" d="M51 1174l62 182l235 -92l37 -88l-80 -46zM137 930l168 200l92 7l21 -90l-123 -228zM319 1507l191 4l-18 -249l-74 -60l-70 62zM418 1047l22 90l92 -11l168 -194l-149 -113zM457 1180l35 82l227 100l63 -184l-250 -52z" />
<glyph unicode="+" horiz-adv-x="1269" d="M86 432v242h414v418h272v-418h410v-242h-410v-432h-272v432h-414z" />
<glyph unicode="," horiz-adv-x="620" d="M82 -272q14 18 34.5 47.5t54.5 95.5t34 102q0 24 -30 80t-30 109q0 82 50.5 132t126.5 50q78 0 125 -49t47 -139q0 -230 -283 -535z" />
<glyph unicode="-" horiz-adv-x="808" d="M113 430v256h583v-256h-583z" />
<glyph unicode="." horiz-adv-x="614" d="M133 160q0 84 51.5 134t124.5 50q84 0 128 -48t44 -136q0 -86 -51.5 -136.5t-124.5 -50.5q-84 0 -128 48.5t-44 138.5z" />
<glyph unicode="/" horiz-adv-x="1056" d="M41 0l682 1444h313l-684 -1444h-311z" />
<glyph unicode="0" horiz-adv-x="1320" d="M123 711q0 183 30.5 320t96.5 236.5t173.5 150t256.5 50.5q150 0 253.5 -47t163 -142.5t85.5 -225.5t26 -312q0 -378 -133 -573t-416 -195q-280 0 -408 186t-128 552zM455 721q0 -267 49 -379.5t164 -112.5q114 0 160 112.5t46 389.5q0 271 -44 376t-162 105t-165.5 -108 t-47.5 -383z" />
<glyph unicode="1" horiz-adv-x="1101" d="M31 1133l487 311h262v-1208h277v-236h-881v236h287v880l-313 -201z" />
<glyph unicode="2" horiz-adv-x="1243" d="M82 0v250q114 92 178 144.5t148.5 125t130.5 117.5t98 102t76.5 99t41.5 87.5t17 88.5q0 94 -65.5 149.5t-174.5 55.5q-48 0 -95.5 -9.5t-70.5 -18.5l-24 -9l-20 -174h-216l-10 378q26 9 70.5 22.5t164 36.5t216.5 23q128 0 226.5 -20.5t175 -65.5t117 -125t40.5 -192 q0 -85 -27 -166.5t-70.5 -153t-122 -157.5t-158 -159.5t-202.5 -178.5h615v-250h-1059z" />
<glyph unicode="3" horiz-adv-x="1212" d="M51 86l86 225q21 -10 56.5 -24t132 -38t176.5 -24q124 0 192 53.5t68 155.5q0 94 -76 147.5t-215 53.5h-160v215h170q128 0 197.5 50.5t69.5 148.5q0 78 -60 124t-166 46q-45 0 -95 -7.5t-77 -15.5l-28 -8l-21 -164h-215l-10 358q28 10 75.5 24t168.5 38t212 24 q527 0 527 -368q0 -132 -65.5 -222.5t-190.5 -123.5q130 -29 208.5 -118.5t78.5 -205.5q0 -97 -33.5 -175t-89.5 -129.5t-132.5 -86t-159.5 -49.5t-173 -15q-73 0 -146.5 11.5t-126 27.5t-94.5 32.5t-63 27.5z" />
<glyph unicode="4" horiz-adv-x="1284" d="M31 532q44 65 279.5 412t361.5 531l342 -31v-901h205v-252h-205v-291h-316v291h-637zM338 543h364v540z" />
<glyph unicode="5" horiz-adv-x="1146" d="M35 86l88 225q21 -10 56.5 -24t131 -38t174.5 -24q102 0 168 55t66 150q0 115 -94.5 167t-286.5 52h-221l35 795h839l-6 -252h-543l-14 -307q297 0 464 -111.5t167 -312.5q0 -151 -77 -263.5t-198.5 -167.5t-265.5 -55q-78 0 -156.5 11.5t-135 27.5t-101.5 32.5t-67 27.5 z" />
<glyph unicode="6" horiz-adv-x="1275" d="M113 604q0 187 47.5 343t140 273t241 182.5t339.5 65.5q54 0 100 -5t65 -10l19 -5l-14 -240q-62 11 -160 11q-90 0 -163.5 -22.5t-119.5 -58t-81 -79t-52 -87t-27 -79t-12 -57.5l-2 -23q16 10 45 24.5t113.5 39t161.5 24.5q95 0 176 -27.5t142.5 -79.5t96.5 -135t35 -188 q0 -141 -70 -255.5t-193 -178.5t-275 -64q-133 0 -239 48t-174 133.5t-104 200t-36 249.5zM426 539q0 -159 67 -236.5t171 -77.5q98 0 157.5 58t59.5 157q0 105 -56.5 162t-165.5 57q-58 0 -116.5 -17.5t-87.5 -35.5l-29 -18v-49z" />
<glyph unicode="7" horiz-adv-x="1087" d="M10 997v447h1045v-221l-537 -1223h-338l531 1188h-453l-41 -191h-207z" />
<glyph unicode="8" horiz-adv-x="1265" d="M92 393q0 215 262 346q-102 57 -158.5 134t-56.5 194q0 190 139 295.5t379 105.5q231 0 356.5 -106.5t125.5 -280.5q0 -63 -22 -116.5t-59.5 -90.5t-71 -59.5t-71.5 -40.5q120 -57 189.5 -139.5t69.5 -212.5q0 -200 -155.5 -324.5t-408.5 -124.5q-249 0 -383.5 116 t-134.5 304zM414 408q0 -89 56.5 -136t160.5 -47t161.5 50t57.5 139q0 41 -18 74t-56.5 59.5t-75 43.5t-96.5 40q-190 -87 -190 -223zM444 1067q0 -38 16.5 -68.5t51 -54.5t68 -40t86.5 -36q28 12 53 27.5t52.5 39.5t43.5 58.5t16 73.5q0 68 -52.5 110t-141.5 42 q-90 0 -141.5 -42t-51.5 -110z" />
<glyph unicode="9" horiz-adv-x="1263" d="M66 971q0 218 153 357.5t385 139.5q133 0 239 -47.5t174 -132.5t104 -199t36 -249q0 -149 -29 -279t-90 -238.5t-150.5 -186t-216.5 -120.5t-282 -43q-54 0 -100 5t-65 10l-19 6l14 239q62 -8 160 -8q92 0 166.5 22t120.5 57.5t81 78.5t51 86t25.5 78.5t10.5 57.5l2 22 q-16 -9 -45 -23t-113.5 -37.5t-161.5 -23.5q-95 0 -176 27t-142.5 79t-96.5 134.5t-35 187.5zM389 1001q0 -104 56 -161.5t165 -57.5q58 0 116.5 18.5t87.5 37.5l30 18v55q0 155 -67.5 231.5t-170.5 76.5q-98 0 -157.5 -59t-59.5 -159z" />
<glyph unicode=":" horiz-adv-x="624" d="M137 160q0 84 52.5 134t125.5 50q84 0 127 -47.5t43 -136.5q0 -86 -51.5 -136.5t-124.5 -50.5q-84 0 -128 48.5t-44 138.5zM137 774q0 85 52.5 136t125.5 51q84 0 127 -48.5t43 -138.5q0 -84 -51.5 -134t-124.5 -50q-84 0 -128 48t-44 136z" />
<glyph unicode=";" horiz-adv-x="636" d="M86 -272q14 18 34.5 47.5t54.5 95.5t34 102q0 24 -29.5 80t-29.5 109q0 82 50 132t128 50t124 -49t46 -139q0 -229 -281 -535zM150 774q0 86 51.5 136.5t124.5 50.5q84 0 128 -48.5t44 -138.5q0 -84 -51.5 -134t-124.5 -50q-84 0 -128 48t-44 136z" />
<glyph unicode="&#x3c;" horiz-adv-x="1222" d="M82 426v246l1059 448v-266l-727 -307l727 -297v-270z" />
<glyph unicode="=" d="M102 219v236h1024v-236h-1024zM102 659v236h1024v-236h-1024z" />
<glyph unicode="&#x3e;" horiz-adv-x="1222" d="M82 -20v270l727 297l-727 307v266l1059 -448v-246z" />
<glyph unicode="?" horiz-adv-x="950" d="M133 1526q170 49 305 49q82 0 151.5 -16.5t129.5 -51.5t94.5 -99t34.5 -151q0 -64 -20.5 -123t-53 -105t-71.5 -88t-78.5 -79.5t-72 -73t-53 -74.5t-20.5 -77l4 -119l-272 -12q-18 133 -18 201q0 46 25.5 92.5t64 82t83.5 76t83.5 75.5t64 79t25.5 88q0 135 -185 135 q-39 0 -84.5 -5.5t-71.5 -11.5l-26 -5zM193 160q0 84 51.5 134t124.5 50q84 0 128 -48t44 -136q0 -85 -53 -136t-126 -51q-84 0 -126.5 48.5t-42.5 138.5z" />
<glyph unicode="@" horiz-adv-x="1679" d="M96 707q0 352 208 556.5t558 204.5q343 0 539 -186.5t196 -531.5q0 -211 -107.5 -330t-275.5 -119q-171 0 -245 127q-4 -5 -12 -13t-33.5 -28.5t-52 -36t-66.5 -28.5t-78 -13q-108 0 -169.5 63.5t-61.5 172.5q0 243 344 243h94v70q0 50 -29 73t-90 23q-41 0 -96 -8.5 t-90 -17.5l-35 -8l-39 151q18 7 49.5 17.5t113.5 27.5t146 17q157 0 229 -62t72 -197v-339q0 -34 19 -53t53 -19q64 0 99.5 70.5t35.5 205.5q0 251 -134 391t-386 140q-254 0 -392 -145t-138 -408q0 -266 120 -407.5t363 -141.5q62 0 126 13t97 25l33 13l84 -168 q-6 -3 -16.5 -8.5t-45.5 -20t-73.5 -25t-98 -19.5t-120.5 -9q-335 0 -515 190t-180 548zM711 563q0 -35 23 -55.5t61 -20.5q69 0 139 70v96h-80q-76 0 -109.5 -22t-33.5 -68z" />
<glyph unicode="A" horiz-adv-x="1531" d="M10 0v174l150 57l450 1207l328 6l440 -1213l144 -57v-174h-652v174l154 55l-49 150h-455l-51 -148l160 -57v-174h-619zM592 598h315l-153 485z" />
<glyph unicode="B" horiz-adv-x="1347" d="M72 0v174l153 62v962l-153 62v174l471 10h215q207 0 328.5 -89t121.5 -265q0 -261 -245 -338q144 -41 218 -125t74 -203q0 -424 -532 -424h-651zM543 246h170q107 0 163 46.5t56 131.5q0 112 -65.5 163.5t-204.5 51.5h-119v-393zM543 854h119q229 0 229 190q0 76 -48 115 t-126 39h-174v-344z" />
<glyph unicode="C" horiz-adv-x="1366" d="M113 700q0 358 186.5 563t503.5 205q110 0 229.5 -24t183.5 -48l64 -24l-10 -389h-201l-47 197q-96 32 -229 32q-164 0 -251 -124.5t-87 -376.5q0 -471 348 -471q57 0 118.5 14.5t107.5 35.5t84.5 42.5t58.5 35.5l20 15l113 -184q-9 -9 -25.5 -24t-71 -54t-113 -68.5 t-148 -53.5t-179.5 -24q-314 0 -484.5 185.5t-170.5 539.5z" />
<glyph unicode="D" horiz-adv-x="1501" d="M82 0v174l154 62v962l-154 62v174l471 10h195q311 0 481 -180.5t170 -522.5q0 -344 -184 -542.5t-498 -198.5h-635zM553 246h170q78 0 136.5 24.5t103.5 79t68.5 150.5t23.5 231q0 249 -80.5 358t-237.5 109h-184v-952z" />
<glyph unicode="E" horiz-adv-x="1273" d="M92 0v174l154 62v962l-154 62v174l471 10h574v-395h-185l-51 149h-338v-338h414v-225h-414v-389h367l47 168h184v-414h-1069z" />
<glyph unicode="F" horiz-adv-x="1187" d="M92 0v174l154 62v962l-154 62v174l471 10h574v-389h-191l-51 143h-332v-358h424v-226h-424v-378l189 -62v-174h-660z" />
<glyph unicode="G" horiz-adv-x="1536" d="M113 700q0 358 186.5 563t503.5 205q110 0 229.5 -24t183.5 -48l64 -24l-10 -368h-191l-51 176q-96 32 -231 32q-167 0 -254.5 -124t-87.5 -377q0 -475 348 -475q47 0 103.5 9t89.5 18l32 9v258l-154 48v167l590 11v-178l-139 -48v-417q-9 -6 -25 -15t-71 -33t-115.5 -42 t-154.5 -33t-191 -15q-314 0 -484.5 185.5t-170.5 539.5z" />
<glyph unicode="H" horiz-adv-x="1622" d="M72 0v174l153 62v962l-153 62v174l635 10v-184l-164 -62v-328h536v328l-164 62v174l635 10v-184l-153 -62v-962l153 -62v-174h-635v174l164 62v389h-536v-389l164 -62v-174h-635z" />
<glyph unicode="I" horiz-adv-x="788" d="M82 0v174l154 62v962l-154 62v174l625 10v-184l-154 -62v-962l154 -62v-174h-625z" />
<glyph unicode="J" horiz-adv-x="786" d="M-61 -313l26 211h98q181 0 181 196v1104l-154 62v174l625 10v-184l-154 -62v-981q0 -139 -22.5 -236.5t-75.5 -169t-144.5 -105.5t-224.5 -34q-29 0 -68 4t-63 8z" />
<glyph unicode="K" horiz-adv-x="1474" d="M72 0v174l153 62v966l-153 62v170l624 10v-180l-153 -62v-352h139l342 584l379 10v-180l-195 -58l-268 -446l381 -524l154 -62v-174h-625v174l123 62l-281 389h-149v-389l153 -62v-174h-624z" />
<glyph unicode="L" horiz-adv-x="1105" d="M61 0v174l154 62v962l-154 62v174l625 10v-184l-154 -62v-952h314l45 225h194v-471h-1024z" />
<glyph unicode="M" horiz-adv-x="1798" d="M72 0v174l153 62v962l-153 62v174l528 10l307 -682l322 672l491 10v-184l-147 -62v-962l153 -62v-174h-610v174l160 62v770l-55 -136l-232 -481l-221 -10l-236 485l-34 107v-735l157 -62v-174h-583z" />
<glyph unicode="N" horiz-adv-x="1611" d="M72 0v174l153 62v962l-153 62v174l491 10l553 -946v700l-149 62v174l583 10v-184l-153 -62v-1198h-342l-549 928v-692l160 -62v-174h-594z" />
<glyph unicode="O" horiz-adv-x="1546" d="M113 711q0 352 181 554.5t494 202.5q307 0 476.5 -191.5t169.5 -535.5q0 -345 -189 -556.5t-497 -211.5t-471.5 189t-163.5 549zM461 721q0 -254 71.5 -373t225.5 -119q161 0 244 117.5t83 384.5q0 250 -75.5 365.5t-231.5 115.5q-160 0 -238.5 -113t-78.5 -378z" />
<glyph unicode="P" horiz-adv-x="1275" d="M72 0v174l153 62v962l-153 62v174l471 10h194q234 0 366 -115t132 -315q0 -255 -150.5 -383.5t-433.5 -128.5h-108v-266l153 -62v-174h-624zM543 741h108q128 0 197.5 59.5t69.5 172.5q0 103 -54.5 164t-156.5 61h-164v-457z" />
<glyph unicode="Q" horiz-adv-x="1519" d="M113 711q0 350 186 553.5t504 203.5q313 0 482 -191t169 -536q0 -263 -113 -452t-313 -266q24 -15 74.5 -49.5t83.5 -55t77.5 -44.5t84 -36t75.5 -12q29 0 76.5 18t80.5 36l32 18q21 -30 57 -86t51 -78q-9 -6 -24 -15.5t-59.5 -34.5t-85 -44t-91.5 -34.5t-88 -15.5 q-61 0 -122 28t-140 81l-414 278q-284 19 -433.5 206t-149.5 528zM451 721q0 -247 79 -369.5t242 -122.5q174 0 259 123t85 379q0 247 -77.5 364t-245.5 117q-174 0 -258 -118t-84 -373z" />
<glyph unicode="R" horiz-adv-x="1382" d="M72 0v174l153 62v962l-153 62v174l471 10h155q256 0 394.5 -106t138.5 -312q0 -270 -232 -387q50 -59 86 -133l138 -281l139 -51v-174h-379l-172 379q-20 46 -31.5 69t-26.5 48.5t-26 35.5t-28.5 20t-37 12.5t-47.5 2.5h-71v-331l147 -62v-174h-618zM543 782h116 q122 0 189 56t67 159q0 89 -55 145t-149 56h-168v-416z" />
<glyph unicode="S" horiz-adv-x="1239" d="M123 1034q0 138 68.5 237.5t185 148t266.5 48.5q103 0 215.5 -20.5t173.5 -41.5l62 -20l-11 -372h-188l-51 174q-92 31 -180 31q-105 0 -161.5 -41t-56.5 -105q0 -38 23.5 -68t63.5 -51.5t92 -41t109.5 -39.5t114.5 -43.5t109 -58t92 -77t63.5 -105.5t23.5 -140 q0 -150 -73 -259t-197 -163t-283 -54q-103 0 -217 19.5t-177 39.5l-63 19v393h209l31 -172q9 -5 26 -12t69 -19t105 -12q104 0 176 44t72 122q0 38 -23.5 68t-63.5 51.5t-92 40.5t-109.5 39t-115 44t-109.5 59t-92 79.5t-63.5 110.5t-23.5 147z" />
<glyph unicode="T" d="M20 1004v440h1188v-440h-190l-51 194h-195v-962l195 -62v-174h-707v174l195 62v962h-195l-51 -194h-189z" />
<glyph unicode="U" horiz-adv-x="1615" d="M72 1260v174l628 10v-184l-159 -62v-645q0 -179 59.5 -253.5t208.5 -74.5q81 0 133 21t80.5 68.5t39.5 110.5t11 159v614l-160 62v174l631 10v-184l-153 -62v-614q0 -152 -31 -262.5t-100 -189.5t-183.5 -118t-277.5 -39q-306 0 -441 139t-135 439v645z" />
<glyph unicode="V" horiz-adv-x="1482" d="M10 1260v174l635 10v-184l-151 -60l188 -588l66 -252l65 242l203 596l-156 62v174l613 10v-184l-150 -62l-432 -1198h-328l-413 1202z" />
<glyph unicode="W" horiz-adv-x="2119" d="M10 1260v174l608 10v-184l-149 -62l176 -737l287 966l276 17l275 -981l196 735l-153 62v174l583 10v-184l-147 -62l-350 -1198h-291l-268 973l-49 -195l-236 -778h-283l-331 1200z" />
<glyph unicode="X" horiz-adv-x="1515" d="M20 0v174l127 51l414 500l-381 496l-119 39v174l615 10v-184l-103 -35l211 -281l201 273l-111 43v174l590 10v-184l-135 -41l-377 -478l400 -518l143 -49v-174h-635v174l94 41l-225 303l-229 -295l129 -49v-174h-609z" />
<glyph unicode="Y" horiz-adv-x="1366" d="M14 1260v174l580 10v-184l-105 -43l205 -441l217 438l-112 46v174l553 10v-184l-142 -56l-370 -702v-266l153 -62v-174h-624v174l153 62v264l-375 704z" />
<glyph unicode="Z" horiz-adv-x="1259" d="M61 0v215l727 983h-430l-51 -184h-194v430h1085v-232l-713 -966h467l45 205h195v-451h-1131z" />
<glyph unicode="[" horiz-adv-x="720" d="M137 -471v2048l512 -10v-211l-243 -23v-1562l243 -23v-209z" />
<glyph unicode="\" horiz-adv-x="1036" d="M14 1444h314l682 -1444h-312z" />
<glyph unicode="]" horiz-adv-x="720" d="M66 -250l245 23v1560l-245 23v211l512 10v-2048l-512 10v211z" />
<glyph unicode="^" horiz-adv-x="1218" d="M102 655l394 789h225l395 -789h-264l-248 502l-246 -502h-256z" />
<glyph unicode="_" horiz-adv-x="1015" d="M-4 -164h1024v-205h-1024v205z" />
<glyph unicode="`" horiz-adv-x="655" d="M49 1526l139 213l457 -365l-100 -149z" />
<glyph unicode="a" horiz-adv-x="1230" d="M82 301q0 176 126 257t367 81h144v113q0 149 -158 149q-46 0 -91 -7.5t-67 -15.5l-22 -8l-31 -129h-184l-14 303q28 9 74.5 22.5t164 36.5t205.5 23q234 0 332 -91.5t98 -313.5v-506l154 -37v-164l-410 -14l-37 133q-6 -6 -18 -16.5t-48.5 -37t-73.5 -46.5t-90 -36.5 t-102 -16.5q-150 0 -234.5 84t-84.5 237zM379 332q0 -59 31.5 -91t89.5 -32q31 0 64.5 12.5t60 29.5t48.5 34.5t34 30.5l12 12v137h-117q-119 0 -171 -31.5t-52 -101.5z" />
<glyph unicode="b" horiz-adv-x="1265" d="M10 1407v164l461 16v-569q140 108 293 108q204 0 312 -141t108 -401q0 -292 -151 -450.5t-443 -158.5q-100 0 -206.5 11t-163.5 22l-56 12v1346zM471 238q48 -17 152 -17q243 0 243 342q0 158 -47.5 238t-152.5 80q-55 0 -103.5 -23.5t-70.5 -46.5l-21 -23v-550z" />
<glyph unicode="c" horiz-adv-x="1075" d="M72 537q0 275 148 432t415 157q78 0 167.5 -18t139.5 -36l51 -17l-10 -336h-184l-29 145q-59 17 -141 17q-113 0 -176.5 -76.5t-63.5 -226.5q0 -169 65 -261t191 -92q41 0 78 6.5t72.5 22t54 25t53 31t39.5 24.5l102 -180q-28 -24 -60.5 -47t-90 -55.5t-133.5 -52 t-156 -19.5q-252 0 -392 147.5t-140 409.5z" />
<glyph unicode="d" horiz-adv-x="1306" d="M82 526q0 292 140.5 446t418.5 154q64 0 154 -20v260l-164 41v164l471 16v-1368l164 -41v-164l-437 -14l-18 109q-129 -129 -309 -129q-210 0 -315 143t-105 403zM399 543q0 -159 47.5 -238.5t149.5 -79.5q37 0 71 12t56 29t39 34.5t25 29.5l8 12v508q-67 31 -160 31 q-236 0 -236 -338z" />
<glyph unicode="e" horiz-adv-x="1155" d="M72 532q0 271 145.5 432.5t400.5 161.5q225 0 345 -128.5t120 -352.5q0 -35 -3 -73t-6 -62t-3 -25h-680q9 -122 75.5 -191t172.5 -69q76 0 162 24.5t134 48.5l48 24l88 -170q-8 -7 -23.5 -18.5t-65 -41t-101 -52.5t-128 -41.5t-149.5 -18.5q-261 0 -396.5 144t-135.5 408 zM395 676h371q0 93 -41.5 149t-126.5 56q-84 0 -137.5 -56t-65.5 -149z" />
<glyph unicode="f" horiz-adv-x="946" d="M82 881v174l184 30v93q0 200 114 317t327 117q98 0 188.5 -19t132.5 -38l41 -19l-6 -301h-184l-31 143q-49 8 -117 8q-158 0 -158 -174v-127h267l-6 -204h-261v-666l205 -51v-164h-676v164l164 51v666h-184z" />
<glyph unicode="g" horiz-adv-x="1249" d="M82 -225q0 49 22 92.5t54 70t63.5 46.5t53.5 28l22 8q-5 1 -13.5 3t-29.5 11.5t-37 23t-29.5 39.5t-13.5 59q0 64 107 231q-158 106 -158 320q0 137 65 233t174 141t252 45q136 0 242 -49l352 8v-163l-168 -29q0 -2 10 -27.5t17.5 -60.5t7.5 -74q0 -109 -36.5 -190.5 t-103.5 -131t-154.5 -74t-196.5 -24.5q-24 0 -48.5 2.5t-39.5 5.5t-17 3l-8 -138h303q196 0 303 -82t107 -235q0 -177 -145 -283t-429 -106q-125 0 -219 15t-165 49t-107.5 92t-36.5 141zM379 -174q0 -73 60.5 -98t195.5 -25q138 0 200 33t62 106q0 66 -48.5 91.5 t-156.5 25.5h-215q-4 -2 -10.5 -5.5t-23.5 -16t-30 -26.5t-23.5 -37t-10.5 -48zM430 721q0 -205 164 -205q94 0 134 49.5t40 155.5q0 98 -40 146t-124 48q-91 0 -132.5 -48t-41.5 -146z" />
<glyph unicode="h" horiz-adv-x="1372" d="M41 0v164l164 51v1151l-164 41v164l471 16v-600q63 52 153.5 95.5t190.5 43.5q155 0 238.5 -97t83.5 -271v-543l143 -51v-164h-557v164l106 49v496q0 163 -135 163q-32 0 -67 -11t-61.5 -27t-48.5 -32t-34 -27l-12 -11v-549l109 -51v-164h-580z" />
<glyph unicode="i" horiz-adv-x="747" d="M72 0v164l164 51v666l-164 51v164l471 10v-891l143 -51v-164h-614zM199 1444q0 84 51.5 134t124.5 50q172 0 172 -184q0 -86 -52 -136.5t-120 -50.5q-84 0 -130 48.5t-46 138.5z" />
<glyph unicode="j" horiz-adv-x="690" d="M-63 -487l24 200h107q90 0 129 50.5t39 152.5v965l-164 51v164l471 10v-1079q0 -137 -22 -232.5t-73.5 -164t-139 -100.5t-216.5 -32q-29 0 -68 4t-63 8zM199 1444q0 82 50.5 133t125.5 51q172 0 172 -184q0 -83 -50.5 -135t-121.5 -52q-84 0 -130 48.5t-46 138.5z" />
<glyph unicode="k" horiz-adv-x="1296" d="M41 0v164l164 51v1151l-164 41v164l471 16v-893h135l139 209l-90 29v164l529 10v-174l-144 -27l-190 -268l229 -424l156 -49v-164h-379l-254 500h-131v-285l113 -51v-164h-584z" />
<glyph unicode="l" horiz-adv-x="708" d="M41 0v164l164 51v1151l-164 41v164l473 16v-1372l184 -51v-164h-657z" />
<glyph unicode="m" horiz-adv-x="2033" d="M72 0v164l157 51v666l-155 51v164l428 10l14 -145q7 7 20 18t53.5 39.5t81 50t97 39.5t106.5 18q207 0 283 -176q20 20 49 43t79.5 56.5t115 55t127.5 21.5q158 0 236.5 -96t78.5 -272v-543l139 -51v-164h-555v164l109 51v487q0 86 -28 127t-91 41q-37 0 -74 -11 t-63.5 -26.5t-47.5 -31t-32 -26.5l-10 -11v-549l106 -51v-164h-520v164l107 51v487q0 87 -26.5 127.5t-90.5 40.5q-37 0 -74.5 -11t-64 -26.5t-48 -31t-31.5 -26.5l-11 -11v-549l108 -51v-164h-573z" />
<glyph unicode="n" horiz-adv-x="1402" d="M72 0v164l164 51v666l-164 51v164l434 10l14 -141q8 6 22 17t57.5 38t86.5 47.5t101.5 37.5t109.5 17q148 0 229.5 -97.5t81.5 -266.5v-543l144 -51v-164h-564v164l113 51v487q0 72 -38 118t-101 46q-36 0 -71.5 -12t-61 -29t-46 -34t-30.5 -29l-10 -12v-535l112 -51 v-164h-583z" />
<glyph unicode="o" horiz-adv-x="1212" d="M72 543q0 274 150 428.5t403 154.5q248 0 382 -144t134 -409q0 -275 -148 -434t-399 -159q-522 0 -522 563zM389 553q0 -169 51.5 -248.5t163.5 -79.5q113 0 166 78.5t53 259.5q0 160 -50.5 239t-158.5 79q-116 0 -170.5 -74.5t-54.5 -253.5z" />
<glyph unicode="p" horiz-adv-x="1306" d="M41 932v164l436 10l19 -115q6 5 16 14.5t43 32.5t66.5 41t82.5 32.5t95 14.5q209 0 317.5 -143.5t108.5 -398.5q0 -288 -137 -446t-402 -158q-86 0 -174 20v-260l195 -47v-164h-662v164l160 47v1141zM512 246q73 -31 160 -31q127 0 181 83.5t54 248.5q0 163 -48.5 248.5 t-156.5 85.5q-37 0 -70.5 -11.5t-54.5 -28t-36.5 -33.5t-22.5 -28l-6 -12v-522z" />
<glyph unicode="q" horiz-adv-x="1224" d="M72 522q0 285 152 444.5t442 159.5q100 0 206.5 -12t163.5 -24l56 -13v-1333l153 -51v-164h-655v164l194 51v346q-5 -4 -15 -11.5t-42 -26.5t-64.5 -33.5t-79.5 -26.5t-91 -12q-209 0 -314.5 144t-105.5 398zM389 543q0 -158 48.5 -238t154.5 -80q56 0 104 23t68 46 l20 23v557q-57 17 -159 17q-122 0 -179 -92.5t-57 -255.5z" />
<glyph unicode="r" horiz-adv-x="1005" d="M72 0v164l164 51v666l-164 51v164l430 10l18 -141q6 7 17 17.5t43.5 38.5t65 49t77 38.5t82.5 17.5q50 0 97.5 -9t69.5 -18l23 -9l-16 -394h-184l-31 174q-53 0 -108 -28.5t-84 -57.5l-29 -28v-541l205 -51v-164h-676z" />
<glyph unicode="s" horiz-adv-x="997" d="M72 776q0 92 35 162t95.5 109.5t133.5 59t158 19.5q82 0 177 -15t149 -31l54 -15l-8 -307h-174l-30 123q-60 20 -142 20q-67 0 -104 -27t-37 -77q0 -33 30 -58t78.5 -42t107 -34.5t116.5 -42t106.5 -57.5t78.5 -88t30 -127q0 -174 -128 -271t-343 -97q-87 0 -181 11 t-145 23l-51 11v333h184l17 -133q72 -20 172 -20q167 0 167 100q0 34 -30 59.5t-78.5 44t-106.5 37t-116 45t-106.5 61.5t-78.5 92.5t-30 131.5z" />
<glyph unicode="t" horiz-adv-x="892" d="M31 850v199l190 26v283l307 55v-338h287v-225h-287v-451q0 -101 23 -142.5t86 -41.5q36 0 84.5 16t77.5 31l73 -156q-170 -126 -348 -126q-86 0 -146.5 28.5t-94 83.5t-48 124.5t-14.5 162.5v471h-190z" />
<glyph unicode="u" horiz-adv-x="1370" d="M31 932v164l471 10v-707q0 -86 28.5 -124.5t96.5 -38.5q37 0 74.5 11.5t64.5 27.5t48.5 32t32.5 27l11 12v535l-164 51v164l471 10v-891l164 -41v-160l-432 -14l-20 143q-7 -7 -19 -18t-51 -39t-79 -49.5t-97.5 -39t-112.5 -17.5q-153 0 -238 97t-85 269v535z" />
<glyph unicode="v" horiz-adv-x="1226" d="M10 932v164l537 10v-174l-115 -21l186 -604l181 598l-119 27v164l537 10v-174l-117 -27l-330 -905h-338l-323 899z" />
<glyph unicode="w" horiz-adv-x="1794" d="M10 932v164l537 10v-174l-129 -25l135 -575l217 739l270 45l224 -784l120 569l-124 31v164l524 10v-174l-109 -25l-272 -907h-313l-162 522l-37 160l-51 -223l-150 -459h-311l-279 903z" />
<glyph unicode="x" horiz-adv-x="1191" d="M10 0v164l154 41l225 338l-248 362l-110 27v164l530 10v-174l-61 -12l106 -181l213 357l342 10v-174l-127 -27l-235 -352l231 -348l152 -41v-164h-557v164l63 22l-108 181l-222 -367h-348z" />
<glyph unicode="y" horiz-adv-x="1230" d="M10 932v164l547 10v-174l-115 -21l183 -573l174 567l-119 27v164l551 10v-174l-127 -27l-301 -839q-24 -66 -44.5 -116.5t-51.5 -111.5t-62 -105.5t-73.5 -89t-89.5 -72.5t-107.5 -45.5t-128.5 -17.5q-31 0 -81 4t-84 8l-34 5l29 219h133q47 0 88.5 20t68 45t53.5 66.5 t37.5 63.5t26.5 59l-364 901z" />
<glyph unicode="z" horiz-adv-x="1034" d="M82 0v188l520 693h-280l-31 -150h-185v375h861v-191l-512 -690h299l34 174h185v-399h-891z" />
<glyph unicode="{" horiz-adv-x="827" d="M61 502v205q108 0 151.5 55.5t43.5 157.5v288q0 198 92.5 288.5t280.5 90.5h137v-211q-146 0 -197 -43t-51 -166v-215q0 -142 -41.5 -225t-146.5 -123q188 -73 188 -291v-354q0 -123 51 -166t197 -43v-211h-137q-204 0 -288.5 100t-84.5 334v316q0 102 -43.5 157.5 t-151.5 55.5z" />
<glyph unicode="|" horiz-adv-x="569" d="M164 -471v2017h242v-2017h-242z" />
<glyph unicode="}" horiz-adv-x="837" d="M82 -250q146 0 196 43t50 166v354q0 217 190 291q-190 74 -190 289v274q0 123 -50 166t-196 43v211h137q190 0 281.5 -91t91.5 -288v-288q0 -102 43 -157.5t151 -55.5v-205q-108 0 -151 -55.5t-43 -157.5v-316q0 -233 -86 -333.5t-289 -100.5h-135v211z" />
<glyph unicode="~" horiz-adv-x="1282" d="M88 532q4 10 13 26t39.5 58t66 74t92.5 58t119 26q58 0 119 -21.5t103.5 -47t97.5 -47t104 -21.5q50 0 99 28.5t73 56.5l24 28l136 -103q-5 -10 -14 -26.5t-41 -59t-66.5 -75t-90 -59t-112.5 -26.5q-58 0 -121 21.5t-109.5 47.5t-105 47.5t-108.5 21.5q-31 0 -61.5 -11.5 t-53 -27.5t-40.5 -32.5t-27 -27.5l-9 -12z" />
<glyph unicode="&#xa2;" horiz-adv-x="1044" d="M78 723q0 209 97 346t282 176v199h221v-187q64 -5 132.5 -22.5t105.5 -32.5l36 -14l-10 -311h-174l-29 141q-59 16 -131 16q-229 0 -229 -272q0 -322 244 -322q31 0 61.5 5.5t52 11.5t49 18.5t40 19.5t37.5 22l30 18l100 -160q-27 -24 -62.5 -49.5t-108 -59.5t-144.5 -45 v-221h-221v225q-183 33 -281 164t-98 334z" />
<glyph unicode="&#xa3;" horiz-adv-x="1280" d="M123 0v174l102 41q60 24 78.5 67t18.5 142l-11 231h-188v191l174 28q-6 85 -6 170q0 200 107 312t329 112q116 0 224.5 -18t158.5 -36l51 -17v-332h-184l-41 152q-76 12 -174 12q-168 0 -168 -180q0 -86 4 -168h295v-226h-279q11 -132 11 -200q0 -38 -6 -72.5 t-15.5 -58.5t-20 -42.5t-19.5 -27t-15 -8.5h381l47 205h190v-451h-1044z" />
<glyph unicode="&#xa5;" horiz-adv-x="1376" d="M20 1260v174l578 10v-184l-104 -43l206 -429l218 426l-115 46v174l553 10v-184l-144 -56l-211 -379h195v-184h-1024v184h193l-209 377zM172 334v184h1024v-184h-352v-109l153 -51v-174h-624v174l153 51v109h-354z" />
<glyph unicode="&#xa8;" horiz-adv-x="1114" d="M184 1458q0 72 44.5 116t107.5 44q71 0 109 -42t38 -118q0 -74 -44 -117t-107 -43q-72 0 -110 41.5t-38 118.5zM631 1458q0 72 45 116t106 44q72 0 110 -42t38 -118q0 -73 -44.5 -116.5t-107.5 -43.5q-72 0 -109.5 41.5t-37.5 118.5z" />
<glyph unicode="&#xa9;" horiz-adv-x="1685" d="M76 707q0 163 58 305t159.5 243.5t243.5 159.5t305 58q218 0 392.5 -94t274 -265t99.5 -387t-104.5 -392t-284.5 -275t-398 -99t-387.5 94t-263.5 264t-94 388zM285 717q0 -252 149 -407.5t397 -155.5q250 0 409 156.5t159 406.5q0 248 -159 405.5t-409 157.5 q-247 0 -396.5 -156t-149.5 -407zM459 700q0 198 105 315.5t294 117.5q56 0 122 -15.5t104 -31.5l38 -15l-6 -229h-141l-23 112q-51 13 -98 13q-170 0 -170 -240q0 -246 178 -246q57 0 117 26t92 52l76 -117q-156 -131 -311 -131q-175 0 -276 101.5t-101 287.5z" />
<glyph unicode="&#xab;" horiz-adv-x="1226" d="M113 463v158l311 362l170 -113l-223 -327l223 -328l-170 -115zM625 463v158l319 362l170 -113l-231 -327l231 -328l-170 -115z" />
<glyph unicode="&#xad;" horiz-adv-x="808" d="M113 430v256h583v-256h-583z" />
<glyph unicode="&#xae;" horiz-adv-x="1480" d="M92 920q0 184 84 332.5t232.5 232.5t332.5 84q182 0 329.5 -78t233 -222t85.5 -327t-89.5 -332.5t-242.5 -233t-338 -83.5q-277 0 -452 174.5t-175 452.5zM293 932q0 -206 118 -332.5t320 -126.5q204 0 331.5 127.5t127.5 331.5t-127.5 330.5t-331.5 126.5 q-202 0 -320 -125.5t-118 -331.5zM455 618v93l69 24v406l-69 28v86l293 5q114 2 182.5 -47t68.5 -140q0 -120 -108 -172q17 -10 35 -45l63 -121l68 -24v-93h-185l-84 187q-17 38 -28.5 49.5t-30.5 11.5h-47v-131l68 -24v-93h-295zM682 975h53q42 0 73.5 22.5t31.5 59.5 q0 38 -23.5 60t-66.5 22h-68v-164z" />
<glyph unicode="&#xb4;" horiz-adv-x="595" d="M0 1378l100 -149l496 301l-139 213z" />
<glyph unicode="&#xb8;" horiz-adv-x="882" d="M195 -412l63 113q82 -43 160 -43q48 0 75 21.5t27 56.5q0 43 -45.5 65.5t-122.5 22.5v176h174v-88q81 -15 128.5 -63t47.5 -119q0 -92 -71.5 -149.5t-186.5 -57.5q-61 0 -123 16.5t-94 32.5z" />
<glyph unicode="&#xbb;" horiz-adv-x="1226" d="M113 215l231 328l-231 327l170 113l319 -362v-158l-319 -363zM633 215l223 328l-223 327l170 113l311 -362v-158l-311 -363z" />
<glyph unicode="&#x2c6;" horiz-adv-x="1114" d="M143 1436l314 268l182 16l332 -284l-99 -136l-309 201l-321 -201z" />
<glyph unicode="&#x2da;" horiz-adv-x="841" d="M147 1483q0 123 83.5 197.5t191.5 74.5t190 -70t82 -190q0 -121 -83 -196.5t-189 -75.5q-110 0 -192.5 70t-82.5 190zM322 1489q0 -58 26 -87.5t74 -29.5q43 0 70.5 31t27.5 88q0 58 -25.5 87.5t-72.5 29.5q-44 0 -72 -31t-28 -88z" />
<glyph unicode="&#x2dc;" horiz-adv-x="1163" d="M164 1384q4 9 10.5 24.5t30.5 54.5t51.5 68.5t71.5 54t92 24.5q60 0 119.5 -23.5t114.5 -47t106 -23.5q36 0 71 21.5t53 42.5l17 22l109 -95q-4 -9 -10.5 -24t-31 -53.5t-52 -68t-71.5 -53.5t-91 -24q-60 0 -120.5 22.5t-116.5 45t-107 22.5q-38 0 -75.5 -21t-56.5 -42 l-18 -21z" />
<glyph unicode="&#x400;" horiz-adv-x="1273" d="M92 0v174l154 62v962l-154 62v174l471 10h574v-395h-185l-51 149h-338v-338h414v-225h-414v-389h367l47 168h184v-414h-1069zM326 1735l118 223l441 -289l-94 -164z" />
<glyph unicode="&#x401;" horiz-adv-x="1273" d="M92 0v174l154 62v962l-154 62v174l471 10h574v-395h-185l-51 149h-338v-338h414v-225h-414v-389h367l47 168h184v-414h-1069zM287 1737q0 72 44 115.5t107 43.5q71 0 109.5 -41.5t38.5 -117.5q0 -73 -44.5 -116.5t-107.5 -43.5q-72 0 -109.5 41.5t-37.5 118.5zM733 1737 q0 72 45 115.5t107 43.5q72 0 109.5 -41.5t37.5 -117.5q0 -74 -44 -117t-107 -43q-72 0 -110 41.5t-38 118.5z" />
<glyph unicode="&#x402;" horiz-adv-x="1536" d="M20 1004v440h1188v-440h-190l-51 194h-215v-473q82 49 181.5 82t192.5 33q168 0 263.5 -101t95.5 -278q0 -116 -21.5 -202t-70 -151.5t-133.5 -99t-205 -33.5q-72 0 -166 15l24 215h107q88 0 123 50t35 155q0 90 -47.5 137t-126.5 47q-111 0 -252 -76v-518h-512v174 l194 62v962h-174l-51 -194h-189z" />
<glyph unicode="&#x403;" horiz-adv-x="1173" d="M72 0v174l153 62v962l-153 62v174l471 10h620v-440h-190l-51 194h-379v-962l194 -62v-174h-665zM444 1669l441 289l119 -223l-465 -230z" />
<glyph unicode="&#x404;" horiz-adv-x="1378" d="M113 700q0 356 185 556.5t505 211.5q64 2 135.5 -6t127.5 -21.5t102.5 -27t71.5 -23.5l26 -10l-11 -389h-200l-47 199q-92 22 -203 22q-300 0 -342 -366h516v-225h-520q33 -381 344 -381q76 0 153 23t116.5 43.5t101.5 58.5l114 -179q-85 -81 -223 -146t-297 -65 q-314 0 -484.5 185.5t-170.5 539.5z" />
<glyph unicode="&#x405;" horiz-adv-x="1239" d="M123 1034q0 138 68.5 237.5t185 148t266.5 48.5q103 0 215.5 -20.5t173.5 -41.5l62 -20l-11 -372h-188l-51 174q-92 31 -180 31q-105 0 -161.5 -41t-56.5 -105q0 -38 23.5 -68t63.5 -51.5t92 -41t109.5 -39.5t114.5 -43.5t109 -58t92 -77t63.5 -105.5t23.5 -140 q0 -150 -73 -259t-197 -163t-283 -54q-103 0 -217 19.5t-177 39.5l-63 19v393h209l31 -172q9 -5 26 -12t69 -19t105 -12q104 0 176 44t72 122q0 38 -23.5 68t-63.5 51.5t-92 40.5t-109.5 39t-115 44t-109.5 59t-92 79.5t-63.5 110.5t-23.5 147z" />
<glyph unicode="&#x406;" horiz-adv-x="788" d="M82 0v174l154 62v962l-154 62v174l625 10v-184l-154 -62v-962l154 -62v-174h-625z" />
<glyph unicode="&#x407;" horiz-adv-x="827" d="M53 1735q0 72 44.5 115.5t107.5 43.5q71 0 109 -41.5t38 -117.5q0 -74 -44 -117t-107 -43q-72 0 -110 41.5t-38 118.5zM111 0v174l153 62v962l-153 62v174l624 10v-184l-153 -62v-962l153 -62v-174h-624zM479 1735q0 72 45 115.5t107 43.5q72 0 109.5 -41.5t37.5 -117.5 q0 -74 -44 -117t-107 -43q-72 0 -110 41.5t-38 118.5z" />
<glyph unicode="&#x408;" horiz-adv-x="786" d="M-61 -313l26 211h98q181 0 181 196v1104l-154 62v174l625 10v-184l-154 -62v-981q0 -139 -22.5 -236.5t-75.5 -169t-144.5 -105.5t-224.5 -34q-29 0 -68 4t-63 8z" />
<glyph unicode="&#x409;" horiz-adv-x="2017" d="M0 10l51 318q37 -11 76 -11q98 0 156.5 68t81.5 213q37 229 55 600l-275 62v184h1323v-184l-184 -62v-313h201q110 0 200 -24.5t158.5 -74.5t106 -133t37.5 -194q0 -231 -140.5 -345t-396.5 -114h-657v174l174 62v962h-312q-5 -89 -13.5 -181.5t-22.5 -224.5t-19 -188 q-11 -113 -27.5 -200t-47.5 -170.5t-73.5 -138t-107.5 -87.5t-149 -33q-88 0 -195 35zM1284 246h156q105 0 162 58t57 155q0 103 -62.5 151.5t-187.5 48.5h-125v-413z" />
<glyph unicode="&#x40a;" horiz-adv-x="2109" d="M72 0v174l153 62v962l-153 62v174l635 10v-184l-164 -62v-315h536v315l-153 62v174l655 10v-184l-184 -62v-315h200q88 0 162.5 -14.5t138 -47t107.5 -80t69 -117t25 -155.5q0 -232 -141 -350.5t-395 -118.5h-637v174l153 62v421h-536v-421l164 -62v-174h-635zM1397 246 h155q104 0 162 62t58 161q0 101 -61.5 144.5t-188.5 43.5h-125v-411z" />
<glyph unicode="&#x40b;" horiz-adv-x="1652" d="M20 1004v440h1188v-440h-190l-51 194h-215v-453q173 134 358 134q171 0 264.5 -98t93.5 -271v-264l144 -62v-184h-584v184l123 62v196q0 181 -174 181q-101 0 -225 -86v-301l122 -62v-174h-634v174l194 62v962h-174l-51 -194h-189z" />
<glyph unicode="&#x40c;" horiz-adv-x="1474" d="M72 0v174l153 62v966l-153 62v170l624 10v-180l-153 -62v-352h139l342 584l379 10v-180l-195 -58l-268 -446l381 -524l154 -62v-174h-625v174l123 62l-281 389h-149v-389l153 -62v-174h-624zM545 1669l440 289l119 -223l-465 -230z" />
<glyph unicode="&#x40d;" horiz-adv-x="1642" d="M72 0v178l153 51v973l-153 62v170l635 10v-180l-164 -62v-622l557 550v72l-164 62v170l635 10v-180l-154 -62v-973l154 -51v-178h-635v178l164 51v625l-557 -551v-74l164 -55v-174h-635zM428 1735l119 223l440 -289l-94 -164z" />
<glyph unicode="&#x40e;" horiz-adv-x="1472" d="M20 1260v174l633 10v-184l-164 -62l306 -575l241 575l-174 62v174l590 10v-184l-164 -62l-317 -747q-204 -476 -490 -476q-151 0 -288 62l55 229q127 -35 213 -35q112 0 192 103l-479 864zM348 1927l262 15v-177q64 -34 162 -34q101 0 162 34v177l262 -15 q0 -91 -33 -160.5t-92 -111t-134 -62.5t-165 -22q-89 -1 -164 20t-134 63t-92.5 112t-33.5 161z" />
<glyph unicode="&#x40f;" horiz-adv-x="1566" d="M72 0v174l153 62v962l-153 62v174l635 10v-184l-164 -62v-952h481v952l-164 62v174l635 10v-184l-154 -62v-962l154 -62v-174h-573l-48 -399h-194l-45 399h-563z" />
<glyph unicode="&#x410;" horiz-adv-x="1531" d="M10 0v174l150 57l450 1207l328 6l440 -1213l144 -57v-174h-652v174l154 55l-49 150h-455l-51 -148l160 -57v-174h-619zM592 598h315l-153 485z" />
<glyph unicode="&#x411;" horiz-adv-x="1320" d="M72 0v174l168 62v962l-154 62v174l471 10h621v-422h-191l-51 176h-379v-375h201q147 0 258 -41t177.5 -130t66.5 -218q0 -214 -141.5 -324t-395.5 -110h-651zM557 246h156q103 0 161 54t58 134q0 85 -63.5 129.5t-186.5 44.5h-125v-362z" />
<glyph unicode="&#x412;" horiz-adv-x="1347" d="M72 0v174l153 62v962l-153 62v174l471 10h215q207 0 328.5 -89t121.5 -265q0 -261 -245 -338q144 -41 218 -125t74 -203q0 -424 -532 -424h-651zM543 246h170q107 0 163 46.5t56 131.5q0 112 -65.5 163.5t-204.5 51.5h-119v-393zM543 854h119q229 0 229 190q0 76 -48 115 t-126 39h-174v-344z" />
<glyph unicode="&#x413;" horiz-adv-x="1173" d="M72 0v174l153 62v962l-153 62v174l471 10h620v-440h-190l-51 194h-379v-962l194 -62v-174h-665z" />
<glyph unicode="&#x414;" horiz-adv-x="1546" d="M10 -399l10 594q66 19 104.5 35.5t74.5 43.5t56 67t35.5 99.5t26.5 147.5q40 329 52 610l-260 62v184h1304v-184l-153 -62v-962l235 -31l10 -604h-194l-117 399h-872l-117 -399h-195zM463 246h479v952h-328q-15 -301 -51 -608q-10 -87 -14.5 -118t-16 -84.5t-28 -84 t-41.5 -57.5z" />
<glyph unicode="&#x415;" horiz-adv-x="1273" d="M92 0v174l154 62v962l-154 62v174l471 10h574v-395h-185l-51 149h-338v-338h414v-225h-414v-389h367l47 168h184v-414h-1069z" />
<glyph unicode="&#x416;" horiz-adv-x="2160" d="M10 0v174l154 62l381 524l-269 446l-194 58v180l381 -10l342 -584h137v352l-154 62v170l594 10v-180l-153 -62v-352h162l342 584l356 10v-180l-195 -58l-268 -446l381 -524l154 -62v-174h-625v174l123 62l-281 389h-149v-389l127 -62v-174h-541v174l127 62v389h-149 l-281 -389l123 -62v-174h-625z" />
<glyph unicode="&#x417;" d="M53 82l76 229q227 -82 393 -82q136 0 211.5 50.5t75.5 154.5q0 95 -79 148t-232 53h-191v215h201q287 0 287 199q0 79 -63 124.5t-183 45.5q-55 0 -110 -7.5t-83 -15.5l-28 -8l-21 -164h-215l-10 358q28 10 76 24t174.5 38t226.5 24q274 0 410.5 -90.5t136.5 -277.5 q0 -132 -65.5 -222.5t-190.5 -123.5q130 -29 208.5 -118.5t78.5 -205.5q0 -95 -34 -173t-91.5 -130t-136.5 -87.5t-165.5 -51t-181.5 -15.5q-238 0 -475 109z" />
<glyph unicode="&#x418;" horiz-adv-x="1642" d="M72 0v178l153 51v973l-153 62v170l635 10v-180l-164 -62v-622l557 550v72l-164 62v170l635 10v-180l-154 -62v-973l154 -51v-178h-635v178l164 51v625l-557 -551v-74l164 -55v-174h-635z" />
<glyph unicode="&#x419;" horiz-adv-x="1642" d="M72 0v178l153 51v973l-153 62v170l635 10v-180l-164 -62v-622l557 550v72l-164 62v170l635 10v-180l-154 -62v-973l154 -51v-178h-635v178l164 51v625l-557 -551v-74l164 -55v-174h-635zM410 1927l262 15v-177q64 -34 162 -34q100 0 161 34v177l262 -15q0 -91 -33 -160.5 t-91.5 -111t-133.5 -62.5t-165 -22q-89 -1 -164 20t-134 63t-92.5 112t-33.5 161z" />
<glyph unicode="&#x41a;" horiz-adv-x="1474" d="M72 0v174l153 62v966l-153 62v170l624 10v-180l-153 -62v-352h139l342 584l379 10v-180l-195 -58l-268 -446l381 -524l154 -62v-174h-625v174l123 62l-281 389h-149v-389l153 -62v-174h-624z" />
<glyph unicode="&#x41b;" horiz-adv-x="1509" d="M-10 10l51 318q37 -11 76 -11q98 0 156 68t81 213q38 238 56 600l-275 62v184h1303v-184l-154 -62v-962l154 -62v-174h-645v174l174 62v962h-322q-5 -89 -13.5 -181.5t-22.5 -224.5t-19 -188q-11 -113 -28 -200t-47.5 -170.5t-73.5 -138t-108 -87.5t-149 -33 q-87 0 -194 35z" />
<glyph unicode="&#x41c;" horiz-adv-x="1798" d="M72 0v174l153 62v962l-153 62v174l528 10l307 -682l322 672l491 10v-184l-147 -62v-962l153 -62v-174h-610v174l160 62v770l-55 -136l-232 -481l-221 -10l-236 485l-34 107v-735l157 -62v-174h-583z" />
<glyph unicode="&#x41d;" horiz-adv-x="1622" d="M72 0v174l153 62v962l-153 62v174l635 10v-184l-164 -62v-328h536v328l-164 62v174l635 10v-184l-153 -62v-962l153 -62v-174h-635v174l164 62v389h-536v-389l164 -62v-174h-635z" />
<glyph unicode="&#x41e;" horiz-adv-x="1546" d="M113 711q0 352 181 554.5t494 202.5q307 0 476.5 -191.5t169.5 -535.5q0 -345 -189 -556.5t-497 -211.5t-471.5 189t-163.5 549zM461 721q0 -254 71.5 -373t225.5 -119q161 0 244 117.5t83 384.5q0 250 -75.5 365.5t-231.5 115.5q-160 0 -238.5 -113t-78.5 -378z" />
<glyph unicode="&#x41f;" horiz-adv-x="1617" d="M72 0v174l153 62v962l-153 62v174l471 10h1003v-184l-153 -62v-962l153 -62v-174h-624v174l153 62v962h-532v-962l153 -62v-174h-624z" />
<glyph unicode="&#x420;" horiz-adv-x="1275" d="M72 0v174l153 62v962l-153 62v174l471 10h194q234 0 366 -115t132 -315q0 -255 -150.5 -383.5t-433.5 -128.5h-108v-266l153 -62v-174h-624zM543 741h108q128 0 197.5 59.5t69.5 172.5q0 103 -54.5 164t-156.5 61h-164v-457z" />
<glyph unicode="&#x421;" horiz-adv-x="1366" d="M113 700q0 358 186.5 563t503.5 205q110 0 229.5 -24t183.5 -48l64 -24l-10 -389h-201l-47 197q-96 32 -229 32q-164 0 -251 -124.5t-87 -376.5q0 -471 348 -471q57 0 118.5 14.5t107.5 35.5t84.5 42.5t58.5 35.5l20 15l113 -184q-9 -9 -25.5 -24t-71 -54t-113 -68.5 t-148 -53.5t-179.5 -24q-314 0 -484.5 185.5t-170.5 539.5z" />
<glyph unicode="&#x422;" d="M20 1004v440h1188v-440h-190l-51 194h-195v-962l195 -62v-174h-707v174l195 62v962h-195l-51 -194h-189z" />
<glyph unicode="&#x423;" horiz-adv-x="1472" d="M20 1260v174l633 10v-184l-164 -62l306 -575l241 575l-174 62v174l590 10v-184l-164 -62l-317 -747q-204 -476 -490 -476q-151 0 -288 62l55 229q127 -35 213 -35q112 0 192 103l-479 864z" />
<glyph unicode="&#x424;" horiz-adv-x="1914" d="M123 754q0 243 167 370t523 150v78l-154 51v174l596 10v-184l-153 -51v-76q357 -15 523.5 -129.5t166.5 -351.5q0 -120 -36 -211t-115.5 -162t-214.5 -113.5t-324 -54.5v-70l153 -51v-174h-596v174l154 51v66q-352 15 -521 135t-169 369zM420 756q0 -103 34.5 -164.5 t120.5 -96t238 -42.5v634q-211 -15 -302 -90t-91 -241zM1102 453q159 7 243 37.5t117 90.5t33 169q0 179 -88 252t-305 85v-634z" />
<glyph unicode="&#x425;" horiz-adv-x="1515" d="M20 0v174l127 51l414 500l-381 496l-119 39v174l615 10v-184l-103 -35l211 -281l201 273l-111 43v174l590 10v-184l-135 -41l-377 -478l400 -518l143 -49v-174h-635v174l94 41l-225 303l-229 -295l129 -49v-174h-609z" />
<glyph unicode="&#x426;" horiz-adv-x="1679" d="M72 0v174l153 62v962l-153 62v174l635 10v-184l-164 -62v-952h532v952l-164 62v174l635 10v-184l-153 -62v-962l235 -31l10 -604h-194l-117 399h-1255z" />
<glyph unicode="&#x427;" horiz-adv-x="1505" d="M20 1260v184h605v-184l-144 -62v-240q0 -133 49.5 -187t155.5 -54q129 0 277 43v438l-144 62v174l615 10v-184l-154 -62v-962l154 -62v-174h-676v174l205 62v303q-2 -1 -17.5 -7.5t-21.5 -9.5t-24 -10t-29.5 -10.5t-32.5 -10t-38 -10t-41.5 -8t-47 -7t-50.5 -4t-57 -1.5 q-94 0 -173 27.5t-139 81.5t-94 141.5t-34 199.5v287z" />
<glyph unicode="&#x428;" horiz-adv-x="2222" d="M72 0v174l153 62v962l-153 62v174l614 10v-184l-143 -62v-952h409v952l-143 62v174l604 10v-184l-143 -62v-952h409v952l-153 62v174l624 10v-184l-153 -62v-962l153 -62v-174h-2078z" />
<glyph unicode="&#x429;" horiz-adv-x="2283" d="M72 0v184l153 52v962l-153 62v174l614 10v-184l-143 -62v-952h409v952l-143 62v174l604 10v-184l-143 -62v-952h409v952l-153 62v174l624 10v-184l-153 -62v-962l235 -31l11 -604h-195l-117 399h-1859z" />
<glyph unicode="&#x42a;" horiz-adv-x="1497" d="M20 1004v440h938v-184l-204 -62v-313h200q110 0 200 -24.5t158.5 -74.5t106 -133t37.5 -194q0 -231 -140 -345t-396 -114h-637v174l153 62v962h-174l-51 -194h-191zM754 246h155q105 0 162 58t57 155q0 110 -61.5 160.5t-187.5 50.5h-125v-424z" />
<glyph unicode="&#x42b;" horiz-adv-x="1996" d="M72 0v174l153 62v962l-153 62v174l655 10v-184l-184 -62v-324h200q110 0 200 -24t158.5 -73t106 -130t37.5 -188q0 -231 -140 -345t-396 -114h-637zM543 246h155q105 0 162.5 58t57.5 155q0 103 -62.5 151.5t-187.5 48.5h-125v-413zM1300 0v174l154 62v962l-154 62v174 l625 10v-184l-153 -62v-962l153 -62v-174h-625z" />
<glyph unicode="&#x42c;" horiz-adv-x="1255" d="M72 0v174l153 62v962l-153 62v174l655 10v-184l-184 -62v-313h200q110 0 200 -24.5t158.5 -74.5t106 -133t37.5 -194q0 -231 -140 -345t-396 -114h-637zM543 246h155q105 0 162.5 58t57.5 155q0 110 -62 160.5t-188 50.5h-125v-424z" />
<glyph unicode="&#x42d;" horiz-adv-x="1378" d="M90 176l117 186q38 -23 82.5 -45.5t132.5 -49.5t162 -27q140 0 227 93.5t107 284.5h-519v226h519q-20 184 -108.5 272t-234.5 88q-57 0 -111 -5.5t-79 -10.5l-25 -6l-36 -191h-201l-10 375q230 102 497 102q315 0 485.5 -186t170.5 -539q0 -177 -50.5 -322t-141 -242.5 t-216 -150.5t-274.5 -53q-244 0 -494 201z" />
<glyph unicode="&#x42e;" horiz-adv-x="2215" d="M72 0v174l153 62v962l-153 62v174l635 10v-184l-164 -62v-328h250q40 282 215 440t450 158q307 0 476 -191.5t169 -535.5q0 -345 -189 -556.5t-497 -211.5q-289 0 -451 166.5t-182 485.5h-241v-389l164 -62v-174h-635zM1130 721q0 -254 71.5 -373t225.5 -119 q161 0 244.5 117.5t83.5 384.5q0 250 -75.5 365.5t-231.5 115.5q-160 0 -239 -113t-79 -378z" />
<glyph unicode="&#x42f;" horiz-adv-x="1402" d="M-20 0v174l159 51l146 197q8 11 26 35.5t24.5 32.5t20.5 26.5t21 25.5t19 19.5t21.5 19t22 14.5t25.5 15q-58 16 -109 46.5t-96 76.5t-71.5 113.5t-26.5 148.5q0 232 135.5 340.5t396.5 108.5h627v-184l-154 -62v-962l154 -62v-174h-619v174l148 62v290h-92 q-60 0 -108 -43.5t-107 -144.5l-195 -338h-368zM477 983q0 -123 70.5 -182.5t216.5 -59.5h86v457h-168q-99 0 -152 -57t-53 -158z" />
<glyph unicode="&#x430;" horiz-adv-x="1230" d="M82 301q0 176 126 257t367 81h144v113q0 149 -158 149q-46 0 -91 -7.5t-67 -15.5l-22 -8l-31 -129h-184l-14 303q28 9 74.5 22.5t164 36.5t205.5 23q234 0 332 -91.5t98 -313.5v-506l154 -37v-164l-410 -14l-37 133q-6 -6 -18 -16.5t-48.5 -37t-73.5 -46.5t-90 -36.5 t-102 -16.5q-150 0 -234.5 84t-84.5 237zM379 332q0 -59 31.5 -91t89.5 -32q31 0 64.5 12.5t60 29.5t48.5 34.5t34 30.5l12 12v137h-117q-119 0 -171 -31.5t-52 -101.5z" />
<glyph unicode="&#x431;" d="M92 645q0 311 46.5 502t139 288t248.5 136q90 25 322 47l88 158l201 -52l-90 -323q-286 -38 -410 -64q-72 -15 -116 -35.5t-80 -63.5t-55 -113.5t-28 -182.5q44 73 129 128.5t209 55.5q94 0 173.5 -32t141 -95t96 -167t34.5 -238q0 -289 -147.5 -451.5t-399.5 -162.5 q-502 0 -502 665zM379 553q0 -175 55.5 -256.5t169.5 -81.5q113 0 166 80t53 268q0 167 -49 247.5t-158 80.5q-84 0 -133.5 -28.5t-76.5 -103.5t-27 -206z" />
<glyph unicode="&#x432;" horiz-adv-x="1269" d="M82 0v164l154 51v666l-154 51v164l461 10h164q216 0 328 -68.5t112 -203.5q0 -103 -64.5 -170.5t-187.5 -90.5q52 -5 100 -21t93.5 -45.5t72.5 -81t27 -118.5q0 -307 -516 -307h-590zM543 225h139q107 0 147.5 22t40.5 95q0 67 -47.5 95t-150.5 28h-129v-240zM543 649h88 q124 0 171.5 25.5t47.5 93.5q0 65 -45.5 89t-138.5 24h-123v-232z" />
<glyph unicode="&#x433;" horiz-adv-x="1085" d="M72 0h676v164l-205 51v645h286l41 -246h195l10 492h-532l-471 -10v-164l164 -51v-666l-164 -51v-164z" />
<glyph unicode="&#x434;" horiz-adv-x="1392" d="M20 195l97 22q64 15 103 47t69.5 106t45.5 195.5t23 315.5l-225 51v174h1157v-174l-143 -51v-656l205 -61l-21 -522h-194l-43 358h-811l-43 -358h-195zM436 246h404v614h-273q-12 -257 -42.5 -401.5t-88.5 -212.5z" />
<glyph unicode="&#x435;" horiz-adv-x="1155" d="M72 532q0 271 145.5 432.5t400.5 161.5q225 0 345 -128.5t120 -352.5q0 -35 -3 -73t-6 -62t-3 -25h-680q9 -122 75.5 -191t172.5 -69q76 0 162 24.5t134 48.5l48 24l88 -170q-8 -7 -23.5 -18.5t-65 -41t-101 -52.5t-128 -41.5t-149.5 -18.5q-261 0 -396.5 144t-135.5 408 zM395 676h371q0 93 -41.5 149t-126.5 56q-84 0 -137.5 -56t-65.5 -149z" />
<glyph unicode="&#x436;" horiz-adv-x="1828" d="M20 0v164l156 49l230 383l-191 309l-143 27v174l528 -10v-164l-90 -29l143 -250h133v228l-94 51v164l350 10v-453h148l143 250l-90 29v164l514 10v-174l-143 -27l-191 -309l230 -383l155 -49v-164h-378l-252 459h-136v-244l121 -51v-164h-501v164l124 51v244h-147 l-252 -459h-367z" />
<glyph unicode="&#x437;" horiz-adv-x="989" d="M20 68l54 196q19 -3 59.5 -11t60.5 -11.5t54 -8t68 -6.5t75 -2q89 0 144 29t55 88q0 67 -50 97t-175 30h-103v184h90q120 0 169.5 29t49.5 92q0 62 -40 89.5t-123 27.5q-57 0 -160 -21l-12 -110h-187l-10 299q205 47 405 47q211 0 317.5 -71t106.5 -201 q0 -102 -64.5 -167.5t-187.5 -88.5q51 -5 99.5 -20.5t93 -43t71.5 -73t27 -101.5q0 -93 -37.5 -160.5t-106 -106t-153 -56t-188.5 -17.5q-187 0 -402 68z" />
<glyph unicode="&#x438;" horiz-adv-x="1536" d="M82 0v164l164 51v666l-164 51v164l594 10v-174l-123 -51v-387l430 325v62l-123 51v164l594 10v-174l-164 -51v-666l164 -51v-164h-594v164l123 51v389l-430 -328v-61l123 -51v-164h-594z" />
<glyph unicode="&#x439;" horiz-adv-x="1536" d="M82 0v164l164 51v666l-164 51v164l594 10v-174l-123 -51v-387l430 325v62l-123 51v164l594 10v-174l-164 -51v-666l164 -51v-164h-594v164l123 51v389l-430 -328v-61l123 -51v-164h-594zM328 1585l262 14v-176q64 -34 162 -34q100 0 161 34v176l263 -14q0 -91 -33 -160.5 t-92 -111t-134 -62.5t-165 -22q-89 -1 -164 20t-134 63t-92.5 112t-33.5 161z" />
<glyph unicode="&#x43a;" horiz-adv-x="1316" d="M61 0v164l164 51v670l-164 41v164l471 16v-453h136l139 250l-90 29v164l528 10v-174l-143 -27l-187 -311l226 -381l155 -49v-164h-372l-254 459h-138v-244l113 -51v-164h-584z" />
<glyph unicode="&#x43b;" horiz-adv-x="1378" d="M-31 8l35 236q71 -13 129 -13q71 0 118 38t76 123t43.5 199.5t20.5 289.5l-231 51v174h1147v-174l-144 -51v-666l144 -51v-164h-615v164l164 51v645h-256q-8 -130 -17 -228t-25 -194t-37.5 -163.5t-53.5 -126t-73.5 -94t-97 -55t-124.5 -19.5q-121 0 -203 28z" />
<glyph unicode="&#x43c;" horiz-adv-x="1687" d="M72 0v164l164 51v666l-164 51v164l460 10l314 -588l311 578l459 10v-174l-164 -51v-666l164 -51v-164h-543v164l123 51v557l-55 -137l-234 -410l-166 -10l-204 346l-56 148v-494l123 -51v-164h-532z" />
<glyph unicode="&#x43d;" horiz-adv-x="1495" d="M72 0v164l164 51v666l-164 51v164l594 10v-174l-123 -51v-201h409v201l-123 51v164l594 10v-174l-163 -51v-666l163 -51v-164h-594v164l123 51v250h-409v-250l123 -51v-164h-594z" />
<glyph unicode="&#x43e;" horiz-adv-x="1212" d="M72 543q0 274 150 428.5t403 154.5q248 0 382 -144t134 -409q0 -275 -148 -434t-399 -159q-522 0 -522 563zM389 553q0 -169 51.5 -248.5t163.5 -79.5q113 0 166 78.5t53 259.5q0 160 -50.5 239t-158.5 79q-116 0 -170.5 -74.5t-54.5 -253.5z" />
<glyph unicode="&#x43f;" horiz-adv-x="1495" d="M92 0v164l164 51v666l-164 51v164l475 10h856v-174l-163 -51v-666l163 -51v-164h-594v164l123 51v645h-389v-645l123 -51v-164h-594z" />
<glyph unicode="&#x440;" horiz-adv-x="1306" d="M41 932v164l436 10l19 -115q6 5 16 14.5t43 32.5t66.5 41t82.5 32.5t95 14.5q209 0 317.5 -143.5t108.5 -398.5q0 -288 -137 -446t-402 -158q-86 0 -174 20v-260l195 -47v-164h-662v164l160 47v1141zM512 246q73 -31 160 -31q127 0 181 83.5t54 248.5q0 163 -48.5 248.5 t-156.5 85.5q-37 0 -70.5 -11.5t-54.5 -28t-36.5 -33.5t-22.5 -28l-6 -12v-522z" />
<glyph unicode="&#x441;" horiz-adv-x="1075" d="M72 537q0 275 148 432t415 157q78 0 167.5 -18t139.5 -36l51 -17l-10 -336h-184l-29 145q-59 17 -141 17q-113 0 -176.5 -76.5t-63.5 -226.5q0 -169 65 -261t191 -92q41 0 78 6.5t72.5 22t54 25t53 31t39.5 24.5l102 -180q-28 -24 -60.5 -47t-90 -55.5t-133.5 -52 t-156 -19.5q-252 0 -392 147.5t-140 409.5z" />
<glyph unicode="&#x442;" horiz-adv-x="1118" d="M20 1106h1078l-11 -492h-194l-41 246h-139v-645l205 -51v-164h-717v164l205 51v645h-140l-41 -246h-194z" />
<glyph unicode="&#x443;" horiz-adv-x="1230" d="M10 932v164l547 10v-174l-115 -21l183 -573l174 567l-119 27v164l551 10v-174l-127 -27l-301 -839q-24 -66 -44.5 -116.5t-51.5 -111.5t-62 -105.5t-73.5 -89t-89.5 -72.5t-107.5 -45.5t-128.5 -17.5q-31 0 -81 4t-84 8l-34 5l29 219h133q47 0 88.5 20t68 45t53.5 66.5 t37.5 63.5t26.5 59l-364 901z" />
<glyph unicode="&#x444;" horiz-adv-x="1519" d="M51 553q0 245 151.5 397t432.5 183v233l-164 41v164l412 16v-450q290 -22 437.5 -162t147.5 -391q0 -250 -150.5 -399.5t-434.5 -178.5v-262l164 -51v-164h-576v164l164 51v260q-584 43 -584 549zM348 563q0 -162 68 -246t219 -104v713q-287 -53 -287 -363zM883 213 q149 24 218.5 113.5t69.5 246.5q0 163 -67.5 249.5t-220.5 107.5v-717z" />
<glyph unicode="&#x445;" horiz-adv-x="1191" d="M10 0v164l154 41l225 338l-248 362l-110 27v164l530 10v-174l-61 -12l106 -181l213 357l342 10v-174l-127 -27l-235 -352l231 -348l152 -41v-164h-557v164l63 22l-108 181l-222 -367h-348z" />
<glyph unicode="&#x446;" horiz-adv-x="1484" d="M72 0v164l164 51v666l-164 51v164l594 10v-174l-123 -51v-635h389v635l-123 51v164l594 10v-174l-164 -51v-666l205 -51l-21 -522h-194l-43 358h-1114z" />
<glyph unicode="&#x447;" horiz-adv-x="1341" d="M-20 932v164l563 10v-174l-103 -49v-103q0 -118 46.5 -167.5t142.5 -49.5q91 0 170 23v295l-103 51v164l574 10v-174l-164 -51v-666l164 -51v-164h-656v164l185 51v191q-127 -58 -267 -58q-198 0 -298.5 103.5t-100.5 304.5v127z" />
<glyph unicode="&#x448;" horiz-adv-x="2048" d="M72 0v164l164 51v676l-164 51v164h583v-164l-112 -51v-645h327v635l-112 51v164l532 10v-174l-112 -51v-635h327v635l-112 51v164l583 10v-164l-164 -61v-666l164 -51v-164h-1904z" />
<glyph unicode="&#x449;" horiz-adv-x="2058" d="M72 0v164l164 51v666l-164 51v164l583 10v-174l-112 -51v-635h327v635l-112 51v164l532 10v-174l-112 -51v-635h327v635l-112 51v164l583 10v-174l-164 -51v-666l205 -51l-20 -522h-195l-43 358h-1687z" />
<glyph unicode="&#x44a;" horiz-adv-x="1316" d="M31 1106h876v-174l-184 -51v-150h57q118 0 207 -20t143.5 -53.5t87.5 -83t45.5 -101t12.5 -115.5q0 -170 -134 -264t-382 -94h-549v164l205 51v645h-140l-40 -246h-195zM723 225h63q172 0 172 123q0 90 -41.5 124t-136.5 34h-57v-281z" />
<glyph unicode="&#x44b;" horiz-adv-x="1808" d="M72 0v164l164 51v666l-164 51v164l655 10v-174l-184 -51v-150h57q118 0 207 -20t143.5 -53.5t87.5 -83t45.5 -101t12.5 -115.5q0 -170 -134 -264t-382 -94h-508zM543 225h63q172 0 172 123q0 90 -41.5 124t-136.5 34h-57v-281zM1143 0v164l164 51v666l-164 51v164l594 10 v-174l-123 -51v-666l123 -51v-164h-594z" />
<glyph unicode="&#x44c;" horiz-adv-x="1136" d="M72 0v164l164 51v666l-164 51v164l655 10v-174l-184 -51v-150h57q118 0 207 -20t143.5 -53.5t87.5 -83t45.5 -101t12.5 -115.5q0 -170 -134 -264t-382 -94h-508zM543 225h63q172 0 172 123q0 90 -41.5 124t-136.5 34h-57v-281z" />
<glyph unicode="&#x44d;" horiz-adv-x="1097" d="M51 141l105 189q179 -105 317 -105q94 0 152 55.5t75 161.5h-370l10 205h360q-21 111 -81.5 172.5t-159.5 61.5q-32 0 -64.5 -4.5t-49.5 -8.5l-17 -4l-29 -135h-184l-11 313q22 9 59 23t137 37.5t183 23.5q257 0 400 -143.5t143 -413.5q0 -265 -141 -425t-391 -164 q-229 -4 -443 161z" />
<glyph unicode="&#x44e;" horiz-adv-x="1847" d="M72 0v164l164 51v666l-164 51v164l594 10v-174l-123 -51v-195h176q38 210 180.5 325t360.5 115q248 0 382 -144t134 -409q0 -275 -148 -434t-399 -159q-481 0 -520 481h-166v-246l123 -51v-164h-594zM1014 553q0 -170 53 -249t172 -79q120 0 174.5 78t54.5 260 q0 161 -51.5 239.5t-167.5 78.5q-123 0 -179 -74t-56 -254z" />
<glyph unicode="&#x44f;" horiz-adv-x="1251" d="M-10 0v164l114 41l82 112q89 122 217 127q-138 37 -218.5 122t-80.5 212q0 328 510 328h566v-174l-154 -51v-666l154 -51v-164h-574v164l113 51v205h-62q-25 0 -46 -6t-39.5 -21.5t-32 -29t-30.5 -42.5t-27 -47t-29 -57l-109 -217h-354zM412 748q0 -73 50 -108.5 t132 -35.5h125v266h-131q-176 0 -176 -122z" />
<glyph unicode="&#x450;" horiz-adv-x="1155" d="M72 532q0 271 145.5 432.5t400.5 161.5q225 0 345 -128.5t120 -352.5q0 -35 -3 -73t-6 -62t-3 -25h-680q9 -122 75.5 -191t172.5 -69q76 0 162 24.5t134 48.5l48 24l88 -170q-8 -7 -23.5 -18.5t-65 -41t-101 -52.5t-128 -41.5t-149.5 -18.5q-261 0 -396.5 144t-135.5 408 zM258 1526l139 213l457 -365l-100 -149zM395 676h371q0 93 -41.5 149t-126.5 56q-84 0 -137.5 -56t-65.5 -149z" />
<glyph unicode="&#x451;" horiz-adv-x="1155" d="M72 532q0 271 145.5 432.5t400.5 161.5q225 0 345 -128.5t120 -352.5q0 -35 -3 -73t-6 -62t-3 -25h-680q9 -122 75.5 -191t172.5 -69q76 0 162 24.5t134 48.5l48 24l88 -170q-8 -7 -23.5 -18.5t-65 -41t-101 -52.5t-128 -41.5t-149.5 -18.5q-261 0 -396.5 144t-135.5 408 zM184 1458q0 72 44.5 116t107.5 44q71 0 109 -42t38 -118q0 -74 -44 -117t-107 -43q-72 0 -110 41.5t-38 118.5zM395 676h371q0 93 -41.5 149t-126.5 56q-84 0 -137.5 -56t-65.5 -149zM631 1458q0 72 45 116t106 44q72 0 110 -42t38 -118q0 -73 -44.5 -116.5t-107.5 -43.5 q-72 0 -109.5 41.5t-37.5 118.5z" />
<glyph unicode="&#x452;" horiz-adv-x="1290" d="M51 0v164l164 51v922h-164v153h164v82l-164 41v164l471 10v-297h389v-153h-389v-201q51 32 86.5 51.5t106 43.5t131.5 24q81 0 140.5 -26t106.5 -89t71 -178.5t24 -284.5q0 -202 -7.5 -343.5t-27.5 -252.5t-50 -177.5t-80 -109.5t-112.5 -59t-152.5 -16q-36 0 -84.5 7.5 t-79.5 15.5l-31 7l25 191l125 -6q40 -2 65 10.5t47 53t33 121t17 208.5t6 322q0 113 -9.5 184t-31 107.5t-47.5 48.5t-68 12q-45 0 -96 -20.5t-79 -40.5l-28 -21v-504l109 -51v-164h-580z" />
<glyph unicode="&#x453;" horiz-adv-x="1085" d="M72 0h676v164l-205 51v645h286l41 -246h195l10 492h-532l-471 -10v-164l164 -51v-666l-164 -51v-164zM313 1374l101 -149l495 301l-139 213z" />
<glyph unicode="&#x454;" horiz-adv-x="1095" d="M72 537q0 275 148 432t415 157q78 0 167.5 -18t139.5 -36l51 -17l-10 -326h-184l-29 135q-59 17 -141 17q-99 0 -161 -59t-75 -175h371l-8 -205h-355q24 -105 85.5 -161t158.5 -56q41 0 78 6.5t72.5 22t54 25t53 31t39.5 24.5l102 -180q-28 -24 -60.5 -47t-90 -55.5 t-133.5 -52t-156 -19.5q-252 0 -392 147.5t-140 409.5z" />
<glyph unicode="&#x455;" horiz-adv-x="997" d="M72 776q0 92 35 162t95.5 109.5t133.5 59t158 19.5q82 0 177 -15t149 -31l54 -15l-8 -307h-174l-30 123q-60 20 -142 20q-67 0 -104 -27t-37 -77q0 -33 30 -58t78.5 -42t107 -34.5t116.5 -42t106.5 -57.5t78.5 -88t30 -127q0 -174 -128 -271t-343 -97q-87 0 -181 11 t-145 23l-51 11v333h184l17 -133q72 -20 172 -20q167 0 167 100q0 34 -30 59.5t-78.5 44t-106.5 37t-116 45t-106.5 61.5t-78.5 92.5t-30 131.5z" />
<glyph unicode="&#x456;" horiz-adv-x="747" d="M72 0v164l164 51v666l-164 51v164l471 10v-891l143 -51v-164h-614zM199 1444q0 84 51.5 134t124.5 50q172 0 172 -184q0 -86 -52 -136.5t-120 -50.5q-84 0 -130 48.5t-46 138.5z" />
<glyph unicode="&#x457;" horiz-adv-x="735" d="M0 1430q0 72 44.5 115.5t107.5 43.5q71 0 109 -41.5t38 -117.5q0 -73 -44.5 -116.5t-107.5 -43.5q-72 0 -109.5 41.5t-37.5 118.5zM74 0v164l164 51v670l-164 41v164l465 16v-891l143 -51v-164h-608zM426 1430q0 72 45 115.5t107 43.5q72 0 109.5 -41.5t37.5 -117.5 q0 -73 -44.5 -116.5t-107.5 -43.5q-72 0 -109.5 41.5t-37.5 118.5z" />
<glyph unicode="&#x458;" horiz-adv-x="690" d="M-63 -487l24 200h107q90 0 129 50.5t39 152.5v965l-164 51v164l471 10v-1079q0 -137 -22 -232.5t-73.5 -164t-139 -100.5t-216.5 -32q-29 0 -68 4t-63 8zM199 1444q0 82 50.5 133t125.5 51q172 0 172 -184q0 -83 -50.5 -135t-121.5 -52q-84 0 -130 48.5t-46 138.5z" />
<glyph unicode="&#x459;" horiz-adv-x="1828" d="M-31 8l35 236q71 -13 129 -13q71 0 118 38t76 123t43.5 199.5t20.5 289.5l-231 51v174h1218v-174l-184 -51v-150h88q118 0 207 -20t143.5 -53.5t87.5 -83t45.5 -101t12.5 -115.5q0 -170 -134 -264t-382 -94h-549v164l174 51v645h-287q-8 -130 -17 -228t-25 -194 t-37.5 -163.5t-53.5 -126t-73.5 -94t-97 -55t-124.5 -19.5q-121 0 -203 28zM1194 225h94q172 0 172 123q0 90 -41.5 124t-136.5 34h-88v-281z" />
<glyph unicode="&#x45a;" horiz-adv-x="1867" d="M72 0v164l164 51v666l-164 51v164l594 10v-174l-123 -51v-174h399v174l-123 51v164l594 10v-174l-164 -51v-174h88q115 0 202.5 -20t141 -52.5t87.5 -79t46.5 -94t12.5 -103.5q0 -169 -133 -263.5t-377 -94.5h-498v164l123 51v266h-399v-266l123 -51v-164h-594zM1249 225 h94q166 0 166 123q0 72 -41 102.5t-131 30.5h-88v-256z" />
<glyph unicode="&#x45b;" horiz-adv-x="1382" d="M51 0v164l164 51v922h-164v153h164v82l-164 41v164l471 10v-297h389v-153h-389v-222q63 53 153.5 96.5t190.5 43.5q155 0 238.5 -97.5t83.5 -271.5v-471l143 -51v-164h-557v164l107 49v424q0 164 -136 164q-51 0 -107 -27.5t-86 -54.5l-30 -27v-477l109 -51v-164h-580z " />
<glyph unicode="&#x45c;" horiz-adv-x="1316" d="M61 0v164l164 51v670l-164 41v164l471 16v-453h136l139 250l-90 29v164l528 10v-174l-143 -27l-187 -311l226 -381l155 -49v-164h-372l-254 459h-138v-244l113 -51v-164h-584zM377 1374l100 -149l496 301l-139 213z" />
<glyph unicode="&#x45d;" horiz-adv-x="1536" d="M82 0v164l164 51v666l-164 51v164l594 10v-174l-123 -51v-387l430 325v62l-123 51v164l594 10v-174l-164 -51v-666l164 -51v-164h-594v164l123 51v389l-430 -328v-61l123 -51v-164h-594zM356 1526l140 213l456 -365l-100 -149z" />
<glyph unicode="&#x45e;" horiz-adv-x="1230" d="M10 932v164l547 10v-174l-115 -21l183 -573l174 567l-119 27v164l551 10v-174l-127 -27l-301 -839q-24 -66 -44.5 -116.5t-51.5 -111.5t-62 -105.5t-73.5 -89t-89.5 -72.5t-107.5 -45.5t-128.5 -17.5q-31 0 -81 4t-84 8l-34 5l29 219h133q47 0 88.5 20t68 45t53.5 66.5 t37.5 63.5t26.5 59l-364 901zM199 1585l262 14v-176q64 -34 162 -34q100 0 161 34v176l263 -14q0 -91 -33 -160.5t-92 -111t-134 -62.5t-165 -22q-89 -1 -164 20t-134 63t-92.5 112t-33.5 161z" />
<glyph unicode="&#x45f;" horiz-adv-x="1474" d="M72 0v164l164 51v666l-164 51v164l594 10v-174l-123 -51v-635h389v635l-123 51v164l594 10v-174l-164 -51v-666l164 -51v-164h-531l-36 -358h-195l-41 358h-528z" />
<glyph unicode="&#x490;" horiz-adv-x="1163" d="M72 0v174l153 62v962l-153 62v174l471 10h299l116 399h195l-10 -399v-246h-600v-962l215 -62v-174h-686z" />
<glyph unicode="&#x491;" horiz-adv-x="1085" d="M72 0v164l164 51v666l-164 51v164l471 10h286l41 287h195l10 -533h-532v-645l205 -51v-164h-676z" />
<glyph unicode="&#x4b0;" horiz-adv-x="1366" d="M14 1260v174l580 10v-184l-105 -43l205 -441l217 438l-112 46v174l553 10v-184l-142 -56l-336 -635h273v-215h-307v-118l153 -62v-174h-624v174l153 62v118h-307v215h270l-338 635z" />
<glyph unicode="&#x4b1;" horiz-adv-x="1226" d="M10 932v164l537 10v-174l-125 -21l196 -620l191 614l-129 27v164l537 10v-174l-127 -27l-285 -721h256v-184h-307v-256l204 -51v-164h-716v164l204 51v256h-307v184h256l-276 715z" />
<glyph unicode="&#x2000;" horiz-adv-x="979" />
<glyph unicode="&#x2001;" horiz-adv-x="1958" />
<glyph unicode="&#x2002;" horiz-adv-x="979" />
<glyph unicode="&#x2003;" horiz-adv-x="1958" />
<glyph unicode="&#x2004;" horiz-adv-x="652" />
<glyph unicode="&#x2005;" horiz-adv-x="489" />
<glyph unicode="&#x2006;" horiz-adv-x="326" />
<glyph unicode="&#x2007;" horiz-adv-x="326" />
<glyph unicode="&#x2008;" horiz-adv-x="244" />
<glyph unicode="&#x2009;" horiz-adv-x="391" />
<glyph unicode="&#x200a;" horiz-adv-x="108" />
<glyph unicode="&#x2010;" horiz-adv-x="808" d="M113 430v256h583v-256h-583z" />
<glyph unicode="&#x2011;" horiz-adv-x="808" d="M113 430v256h583v-256h-583z" />
<glyph unicode="&#x2012;" horiz-adv-x="808" d="M113 430v256h583v-256h-583z" />
<glyph unicode="&#x2013;" horiz-adv-x="1024" d="M0 547v241h1024v-241h-1024z" />
<glyph unicode="&#x2014;" horiz-adv-x="1986" d="M0 547v241h1987v-241h-1987z" />
<glyph unicode="&#x2018;" horiz-adv-x="636" d="M123 1079q0 228 283 533l129 -105q-14 -18 -34.5 -47.5t-54.5 -96t-34 -103.5q0 -22 15 -49t29.5 -62.5t14.5 -77.5q0 -82 -50 -132t-126 -50q-79 0 -125.5 49t-46.5 141z" />
<glyph unicode="&#x2019;" horiz-adv-x="636" d="M102 995q14 18 34.5 47.5t54.5 96t34 102.5q0 24 -29.5 80t-29.5 109q0 82 50 132t128 50t124 -49t46 -140q0 -228 -281 -534z" />
<glyph unicode="&#x201a;" horiz-adv-x="636" d="M96 -324q14 18 34.5 47.5t54.5 96t34 102.5q0 24 -29.5 80t-29.5 109q0 82 50 132t128 50t124 -49t46 -140q0 -228 -281 -534z" />
<glyph unicode="&#x201c;" horiz-adv-x="1114" d="M123 1079q0 228 283 533l129 -105q-14 -18 -34.5 -47.5t-54.5 -96t-34 -103.5q0 -22 15 -49t29.5 -62.5t14.5 -77.5q0 -82 -50 -132t-126 -50q-79 0 -125.5 49t-46.5 141zM600 1079q0 227 281 533l131 -105q-14 -18 -34.5 -47.5t-54.5 -96t-34 -103.5q0 -22 14.5 -49 t29.5 -62.5t15 -77.5q0 -82 -50 -132t-128 -50t-124 49t-46 141z" />
<glyph unicode="&#x201d;" horiz-adv-x="1114" d="M102 995q14 18 34.5 47.5t54.5 96t34 102.5q0 24 -29.5 80t-29.5 109q0 82 50 132t128 50t124 -49t46 -140q0 -228 -281 -534zM580 995q14 18 34 47.5t54 96t34 102.5q0 24 -29.5 80t-29.5 109q0 82 50 132t126 50q78 0 125 -49.5t47 -139.5q0 -230 -282 -534z" />
<glyph unicode="&#x201e;" horiz-adv-x="1112" d="M96 -324q14 18 34.5 47.5t54.5 96t34 102.5q0 24 -29.5 80t-29.5 109q0 82 50 132t128 50t124 -49t46 -140q0 -228 -281 -534zM573 -324q14 18 34.5 47.5t54.5 96t34 102.5q0 24 -29.5 80t-29.5 109q0 82 50 132t126 50q78 0 125 -49.5t47 -139.5q0 -229 -283 -534z" />
<glyph unicode="&#x2022;" horiz-adv-x="1112" d="M164 645q0 160 113.5 273.5t273.5 113.5t273.5 -113.5t113.5 -273.5t-113.5 -273.5t-273.5 -113.5t-273.5 113.5t-113.5 273.5z" />
<glyph unicode="&#x2026;" horiz-adv-x="1597" d="M106 160q0 84 53 134t126 50q84 0 127 -47.5t43 -136.5q0 -86 -51.5 -136.5t-124.5 -50.5q-84 0 -128.5 48.5t-44.5 138.5zM625 160q0 84 51.5 134t124.5 50q84 0 128 -48t44 -136q0 -86 -51.5 -136.5t-124.5 -50.5q-84 0 -128 48.5t-44 138.5zM1141 160q0 84 52.5 134 t125.5 50q84 0 127 -47.5t43 -136.5q0 -86 -51.5 -136.5t-124.5 -50.5q-84 0 -128 48.5t-44 138.5z" />
<glyph unicode="&#x202f;" horiz-adv-x="391" />
<glyph unicode="&#x2039;" horiz-adv-x="694" d="M102 463v158l320 362l170 -113l-232 -327l232 -328l-170 -115z" />
<glyph unicode="&#x203a;" horiz-adv-x="694" d="M113 215l231 328l-231 327l170 113l319 -362v-158l-319 -363z" />
<glyph unicode="&#x205f;" horiz-adv-x="489" />
<glyph unicode="&#x20ac;" horiz-adv-x="1304" d="M55 453v184h881v-184h-393q61 -215 260 -215q49 0 100.5 12t90.5 29t70.5 34t48.5 29l17 12l113 -180q-8 -8 -22.5 -21.5t-63.5 -48t-102 -60.5t-134 -47.5t-163 -21.5q-83 0 -154.5 17.5t-123.5 45.5t-95 68.5t-71.5 82t-50.5 90.5t-34 89.5t-20 84.5h-154zM55 766v184 h148q15 81 42 152.5t74.5 140t110.5 117.5t155 78.5t203 29.5q96 0 199.5 -21.5t158.5 -42.5l56 -22l-10 -338h-191l-32 144q-78 31 -191 31q-46 0 -84 -15t-63 -38.5t-44.5 -52.5t-30.5 -57.5t-17.5 -52t-8.5 -38.5l-2 -15h408v-184h-881z" />
<glyph unicode="&#x2122;" horiz-adv-x="1886" d="M51 1165v279h717v-279h-113l-34 144h-115v-525l102 -30v-99h-405v99l102 30v525h-115l-26 -144h-113zM834 655v99l102 30v516l-102 29v109l311 6l182 -361l184 355l299 6v-111l-100 -33v-516l100 -30v-99h-364v99l92 30v385l-162 -297l-121 -14l-161 299v-373l92 -30v-99 h-352z" />
<glyph unicode="&#x25fc;" horiz-adv-x="1105" d="M0 0v1106h1106v-1106h-1106z" />
</font>
</defs>
</svg>
